<svg width="302" height="302" viewBox="0 0 302 302" fill="none" xmlns="http://www.w3.org/2000/svg">
<g clip-path="url(#clip0_33_2)">
<mask id="mask0_33_2" style="mask-type:luminance" maskUnits="userSpaceOnUse" x="1" y="-1" width="300" height="302">
<path d="M1 -0.534058H301V300.534H1V-0.534058Z" fill="white"/>
</mask>
<g mask="url(#mask0_33_2)">
<path d="M254.42 153.204C248.082 170.424 242.303 179.326 236.752 180.414C235.332 180.69 234.77 180.087 234.467 179.608C233.747 178.465 233.453 176.163 233.747 172.782C234.171 167.968 235.785 160.968 239.069 152.039C245.034 135.839 252.403 126.525 256.604 125.701L256.704 125.681C258.372 125.355 258.984 125.981 259.3 126.484C260.033 127.649 261.85 133.021 254.42 153.204ZM268.54 120.986C264.14 117.386 258.28 116.273 251.576 117.766L251.461 117.792C237.507 120.899 220.675 136.832 216.971 160.228C216.503 163.18 216.355 166.03 216.511 168.701C216.551 169.381 216.616 170.047 216.695 170.708C212.253 176.432 207.373 180.562 206.255 181.305C200.731 184.975 198.26 177.455 195.595 171.335L190.175 158.308C207.49 143.578 221.923 131.278 221.923 131.278C223.758 129.714 223.971 126.962 222.406 125.13C220.842 123.29 218.09 123.077 216.256 124.643L186.64 149.76L213.683 85.6559C215.51 81.3239 213.483 76.3279 209.147 74.4999C204.813 72.6739 199.82 74.7029 197.993 79.0369L157.863 174.164L146.131 184.114C141.444 187.899 136.956 191.012 135.348 190.14C132.831 188.767 134.228 185.785 135.405 183.003L173.182 93.4529C175.007 89.1179 172.977 84.1229 168.642 82.2929C164.31 80.4679 159.318 82.4969 157.492 86.8329L113.163 191.9C112.403 193.7 111.973 195.348 111.973 197.266C111.973 201.6 114.113 205.426 117.143 207.699C119.003 209.104 121.193 209.917 123.441 209.917C125.388 209.917 128.833 209.773 131.853 207.65C132.565 207.153 139.996 200.9 150.308 192.167C148.975 196.321 151.01 200.877 155.103 202.605C159.436 204.435 164.429 202.405 166.26 198.068L176.596 173.568L181.911 186.588C184.435 192.488 188.447 197.428 197.515 195.646C205.095 194.156 213.393 185.876 219.035 178.994C220.215 181.424 221.782 183.486 223.717 185.074C226.831 187.621 232.455 190.234 241.571 188.204C255.147 185.178 271.531 170.74 275.423 146.187C277.165 135.179 274.657 125.997 268.541 120.987M73.652 168.524L106.792 130.844L92.452 164.834L73.652 168.524ZM151.02 283.734C100.455 283.734 56.383 255.424 33.817 213.816L64.197 179.276L88.362 174.531L74.876 206.501C73.048 210.831 75.08 215.826 79.412 217.656C83.745 219.483 88.742 217.456 90.568 213.121L137.993 100.708C139.82 96.3739 137.788 91.3779 133.453 89.5509C130.743 88.4059 127.77 88.7759 125.476 90.2739C124.896 90.6239 124.363 91.0609 123.896 91.5989L52.604 172.659L33.484 176.413C31.12 176.887 29.59 179.187 30.064 181.548C30.54 183.911 32.841 185.443 35.204 184.968L43.148 183.408L27.716 200.956C21.32 185.386 17.786 168.352 17.786 150.506C17.786 77.0389 77.554 17.2709 151.018 17.2709C224.481 17.2709 284.25 77.0409 284.25 150.505C284.252 223.967 224.482 283.734 151.02 283.734ZM151.02 0.617943C68.37 0.616943 1.13 67.8539 1.13 150.503C1.13 233.149 68.37 300.388 151.02 300.388C233.664 300.388 300.906 233.15 300.906 150.503C300.906 67.8529 233.664 0.617943 151.02 0.617943Z" fill="#E3333C"/>
</g>
</g>
<defs>
<clipPath id="clip0_33_2">
<rect width="302" height="302" fill="white"/>
</clipPath>
</defs>
</svg>
